<svg width="20" height="20" viewBox="0 0 20 20" fill="none" xmlns="http://www.w3.org/2000/svg">
<path d="M10 12.25C12.1746 12.25 13.9375 10.4871 13.9375 8.3125C13.9375 6.13788 12.1746 4.375 10 4.375C7.82538 4.375 6.0625 6.13788 6.0625 8.3125C6.0625 10.4871 7.82538 12.25 10 12.25Z" stroke="#367560" stroke-width="1.5" stroke-linecap="round" stroke-linejoin="round"/>
<path d="M15.1849 16.6571C14.5056 15.9735 13.6978 15.431 12.808 15.0608C11.9182 14.6906 10.9639 14.5 10.0002 14.5C9.03643 14.5 8.0822 14.6906 7.19239 15.0608C6.30258 15.431 5.49477 15.9735 4.81543 16.6571" stroke="#367560" stroke-width="1.5" stroke-linecap="round" stroke-linejoin="round"/>
<path d="M10 18.4375C14.6599 18.4375 18.4375 14.6599 18.4375 10C18.4375 5.3401 14.6599 1.5625 10 1.5625C5.3401 1.5625 1.5625 5.3401 1.5625 10C1.5625 14.6599 5.3401 18.4375 10 18.4375Z" stroke="#367560" stroke-width="1.5" stroke-linecap="round" stroke-linejoin="round"/>
</svg>
