<svg xmlns="http://www.w3.org/2000/svg" viewBox="0 0 101.93 115.49"><defs><style>.cls-1,.cls-2,.cls-3,.cls-4{fill:none;stroke:#477562;stroke-linecap:round;stroke-linejoin:round;}.cls-1{stroke-width:3.88px;}.cls-2{stroke-width:9.66px;}.cls-3{stroke-width:7.74px;}.cls-4{stroke-width:4.26px;}</style></defs><g id="Layer_2" data-name="Layer 2"><g id="Layer_1-2" data-name="Layer 1"><path class="cls-1" d="M49.93,66.52c0,1.16,0,2.45,0,3.84,0,.15,0,.31,0,.47,0,2,0,4.15.05,6.53.06,7,.13,15.69.2,25.61a92.53,92.53,0,0,0-37.07-1.29c-2,.35-4,.77-5.91,1.23V42a64.87,64.87,0,0,1,12.59-1.73c4.89-.18,8.41-.31,12.7,1.11A24.4,24.4,0,0,1,36,42.83"/><path class="cls-2" d="M50.56,77.38c-2.1-.09-3.16-.14-3.88-.7-2.89-2.25-.68-11.63-2.12-14.21a7.68,7.68,0,0,0-.84-1.2c-.87-.92-1.79-1.07-3.63-3.46a19.44,19.44,0,0,1-4.43-11A17.33,17.33,0,0,1,40.5,34a15.24,15.24,0,0,1,10.06-4.65C57.26,29.15,63.4,34,65.47,40a16.51,16.51,0,0,1-1.74,13.74c-4.06,6.15-5.68,7.72-5.68,7.72A6.6,6.6,0,0,0,56.34,64a7.62,7.62,0,0,0-.16,3.87c.09.78.81,7.36-1.88,9.1C53.52,77.5,52.53,77.46,50.56,77.38Z"/><path class="cls-2" d="M32.46,17.44l-5.23-4.71"/><path class="cls-2" d="M23.92,32.44l-6.75-2"/><path class="cls-2" d="M84.36,29l-6.43,2.87"/><path class="cls-2" d="M50.64,11.87c0-2.35,0-4.69,0-7"/><path class="cls-2" d="M68.09,17.44l5.23-4.71"/><path class="cls-3" d="M44.74,61.86c-.47.29,1.47,8.61,5.9,8.55,3.91,0,6.23-6.6,5.71-7s-2.61,3.4-5.76,3.23C47.11,66.42,45.11,61.62,44.74,61.86Z"/><path class="cls-1" d="M49.54,66.41c0,1.09.05,2.38.08,3.86,0,.62,0,1.28,0,2,0,1.54.06,3.24.1,5.11.12,6.53.28,15.09.47,25.62a96.32,96.32,0,0,1,43.36-.21V41.86c-2.68-.26-6.82-.69-11.89-1.3-8-1-10.28-1.42-13.41-.52a16.68,16.68,0,0,0-2.52,1"/><path class="cls-4" d="M7.24,48a11.87,11.87,0,0,0-5.11-.36v65.57a113.56,113.56,0,0,1,48.77.14q-.19-17.07-.38-34.13,0-5.12-.11-10.23a1.23,1.23,0,0,0,.51-.79,1.26,1.26,0,0,0-.83-1.29"/><path class="cls-4" d="M95,47.76a11.08,11.08,0,0,1,2.21-.41,10.4,10.4,0,0,1,2.56.14v65.57a145,145,0,0,0-48.9.3c0-.15,0-9,0-9.18,0-6.86,0-8.37,0-10.67-.06-4.5-.11-4.08-.23-10,0,0-.05-2.66-.18-14.49h0l.51-.79.89-1.38"/></g></g></svg>