<svg height='100px' width='100px'  fill="#367560" xmlnsX="http://ns.adobe.com/Extensibility/1.0/" xmlnsI="http://ns.adobe.com/AdobeIllustrator/10.0/" xmlnsGraph="http://ns.adobe.com/Graphs/1.0/" xmlns="http://www.w3.org/2000/svg" xmlnsXlink="http://www.w3.org/1999/xlink" version="1.1" x="0px" y="0px" viewBox="0 0 100 100" style="enable-background:new 0 0 100 100;" xmlSpace="preserve"><g><g iExtraneous="self"><g><path d="M63,35.9V23.4c0-4.1-3.4-7.5-7.5-7.5c-3.9,0-7.1,3.1-7.4,6.9c-9.2,7.6-17.9,10.4-30.6,10.4h-7.4c-4.2,0-7.6,3.4-7.6,7.6     v13.3c0,4.2,3.4,7.6,7.6,7.6h2.7l3.6,19c0.4,2,2.1,3.4,4.1,3.4h8.3c1.2,0,2.4-0.6,3.2-1.5c0.8-1,1.1-2.2,0.9-3.4l-3.1-16.2     c6.7,1.5,12.4,4.3,18.3,9.2c0.3,3.9,3.5,6.9,7.4,6.9c4.1,0,7.5-3.4,7.5-7.5V59.1c5.3-1,9.2-5.9,9.2-11.6     C72.2,41.7,68.2,36.9,63,35.9z M6.7,54.1V40.8c0-1.8,1.5-3.3,3.3-3.3h7.4c12.4,0,21.5-2.7,30.6-9.3v38.6     c-9-6.6-18.1-9.3-30.6-9.3h-7.4C8.2,57.5,6.7,56,6.7,54.1z M28.7,79.9l-8.1,0.1l-3.5-18.2h0.4c2.8,0,5.4,0.2,7.8,0.5L28.7,79.9z      M58.7,71.6c0,1.8-1.5,3.2-3.2,3.2s-3.2-1.5-3.2-3.2V23.4c0-1.8,1.5-3.2,3.2-3.2s3.2,1.5,3.2,3.2V71.6z M63,54.7V40.3     c2.9,1,5,3.8,5,7.2S65.8,53.7,63,54.7z" stroke="#367560" stroke-width="2" stroke-linecap="round" stroke-linejoin="round"></path><path d="M95.4,45.3H81.1c-1.2,0-2.1,1-2.1,2.1c0,1.2,1,2.1,2.1,2.1h14.3c1.2,0,2.1-1,2.1-2.1C97.5,46.3,96.5,45.3,95.4,45.3z" stroke="#367560" stroke-width="2" stroke-linecap="round" stroke-linejoin="round"></path><path d="M91.8,65.6l-12.9-6c-1.1-0.5-2.3,0-2.8,1c-0.5,1.1,0,2.3,1,2.8l12.9,6c0.3,0.1,0.6,0.2,0.9,0.2c0.8,0,1.6-0.5,1.9-1.2     C93.4,67.4,92.9,66.1,91.8,65.6z" stroke="#367560" stroke-width="2" stroke-linecap="round" stroke-linejoin="round"></path><path d="M78,35.6c0.3,0,0.6-0.1,0.9-0.2l12.9-6c1.1-0.5,1.5-1.8,1-2.8c-0.5-1.1-1.8-1.5-2.8-1l-12.9,6c-1.1,0.5-1.5,1.8-1,2.8     C76.4,35.1,77.2,35.6,78,35.6z" stroke="#367560" stroke-width="2" stroke-linecap="round" stroke-linejoin="round"></path></g></g></g></svg>