<svg height='100px' width='100px'  fill="#367560" xmlns="http://www.w3.org/2000/svg" xmlnsXlink="http://www.w3.org/1999/xlink" viewBox="0 0 24 24" version="1.1" x="0px" y="0px"><title>890890</title><desc>Created with Sketch.</desc><g stroke="none" stroke-width="1" fill="none" fill-rule="evenodd"><path d="M4,7.41825792 L20,7.41825792 C20.5522847,7.41825792 21,7.86597317 21,8.41825792 L21,12.2849247 C21,12.8372095 20.5522847,13.2849247 20,13.2849247 L4,13.2849247 C3.44771525,13.2849247 3,12.8372095 3,12.2849247 L3,8.41825792 C3,7.86597317 3.44771525,7.41825792 4,7.41825792 Z M4.5,8.91825792 L4.5,11.7849247 L19.5,11.7849247 L19.5,8.91825792 L4.5,8.91825792 Z" fill="#367560" fill-rule="nonzero"></path><polygon fill="#367560" fill-rule="nonzero" points="11.25 7.69527615 11.25 21.034792 12.75 21.034792 12.75 7.69527615"></polygon><path d="M6.90535427,8.95638247 L6.3747943,8.84790638 L6.31083725,8.31016068 C6.09380973,6.48541098 6.45770325,4.92097996 7.41375637,3.65852137 C8.74773597,1.89701463 10.2986182,1.86994233 11.2023043,3.06325075 C12.0091687,4.12870707 11.9996472,5.77017863 10.7612824,7.40542698 C9.75900699,8.72892159 8.43565138,9.26926068 6.90535427,8.95638247 Z M7.75398114,7.54259717 C8.45139508,7.53494177 9.03581073,7.19928013 9.56548235,6.49985405 C10.4003759,5.39738541 10.4056055,4.49583279 10.0065043,3.96882367 C9.71102517,3.57864644 9.3510724,3.5849298 8.60955638,4.5640943 C7.99893678,5.37041138 7.71135204,6.35437644 7.75398114,7.54259717 Z" fill="#367560" fill-rule="nonzero" transform="translate(9.004115, 5.641668) rotate(-90.000000) translate(-9.004115, -5.641668) "></path><path d="M12.0065148,8.33750119 L11.4693992,8.27465074 L11.3593694,7.74518242 C11.0410442,6.21338713 11.5792937,4.88902472 12.9039619,3.88791105 C14.5394489,2.65189716 16.17028,2.63560433 17.2320549,3.43803723 C18.4284084,4.34217744 18.4126236,5.89959839 16.6496898,7.23192983 C15.3878493,8.18556166 13.826384,8.55045278 12.0065148,8.33750119 Z M15.7452946,6.03523888 C16.7200777,5.29854971 16.7237716,4.9340885 16.3276596,4.63472818 C15.8059489,4.24044701 14.9135414,4.24936261 13.8083571,5.084602 C13.1096186,5.61267136 12.7755741,6.19568823 12.7703788,6.89282645 C13.9557026,6.9331017 14.9385681,6.64491975 15.7452946,6.03523888 Z" fill="#367560" fill-rule="nonzero"></path><path d="M3.6628418,12.75 L3.6628418,20.034792 C3.6628418,21.0012903 4.44634348,21.784792 5.4128418,21.784792 L18.5895996,21.784792 C19.5560979,21.784792 20.3395996,21.0012903 20.3395996,20.034792 L20.3395996,12.75 C20.3395996,12.3357864 20.0038132,12 19.5895996,12 C19.175386,12 18.8395996,12.3357864 18.8395996,12.75 L18.8395996,20.034792 C18.8395996,20.1728632 18.7276708,20.284792 18.5895996,20.284792 L5.4128418,20.284792 C5.27477061,20.284792 5.1628418,20.1728632 5.1628418,20.034792 L5.1628418,12.75 C5.1628418,12.3357864 4.82705536,12 4.4128418,12 C3.99862823,12 3.6628418,12.3357864 3.6628418,12.75 Z" fill="#367560" fill-rule="nonzero"></path></g></svg>