<svg xmlns="http://www.w3.org/2000/svg" width="36" height="36" viewBox="0 0 93.75 126.08"><defs><style>.cls-1{fill:none;stroke:#007a5e;stroke-linecap:round;stroke-miterlimit:10;stroke-width:3px;}.cls-2{fill:#007a5e;}</style></defs><g id="Layer_2" data-name="Layer 2"><g id="Layer_1-2" data-name="Layer 1"><path class="cls-1" d="M1.5,123A89.3,89.3,0,0,0,27,115.59c9.37-4.38,14.15-8.67,24-9.85a42.73,42.73,0,0,1,14.75.94c14.19,3.44,23,13.45,26.48,17.9"/><path class="cls-2" d="M74.24,30.7A35.41,35.41,0,0,1,65,37.53c.92-2.94,1.67-4.7,3.39-5.51a19.23,19.23,0,0,1,5.81-1.32M28,46.64A16.7,16.7,0,0,1,32.51,49a7,7,0,0,1-3-1.13A11.9,11.9,0,0,1,28,46.64M48.18,57c0,1.53,0,3.2,0,5a29.49,29.49,0,0,0-1.15-4,4.76,4.76,0,0,0,1.1-1M54.9,0c-1.36,0-5.44,5.49-8.08,11.58C41.09,24.79,43,38.75,43.33,40.72c1,6.48,3.17,13.14,1.24,14.12a1,1,0,0,1-.52.12,3,3,0,0,1-1.42-.47c-2.75-1.54-4.16-5.64-6.42-7.72a19.64,19.64,0,0,0-11.72-4.93,3.06,3.06,0,0,0-2.54.84c-1.08,1.58,1.62,6.12,5.3,8.56,4.61,3,8.09,1.07,11.86,3.09,5.39,2.88,5.38,11.17,6.74,18C48,83.25,50.25,94.08,51.6,105.1a33.61,33.61,0,0,1,6.17-.53h.72c-.27-2.1-.62-4.49-1.11-7.22-.7-3.91-.68-3-1.75-8.59-1.72-9-2.85-15-3.14-22.21-.36-8.87-.78-13.48,2-17.14,3-3.91,7.88-6.05,12.19-8.17C75,37.19,82.2,28.84,81.05,26.81c-.21-.38-.81-.51-1.86-.51-.74,0-1.7.06-2.91.14-1.78.11-6.47.43-9.58,1.9-7.31,3.44-4.36,14.43-12,18.83a11.93,11.93,0,0,1-4.26,1.45,98.08,98.08,0,0,1,.78-29.52C53.11,8.64,56.36.61,55.06,0a.38.38,0,0,0-.16,0Z"/></g></g></svg>