<svg xmlns="http://www.w3.org/2000/svg" viewBox="0 0 354.99 354.03"><g id="Layer_2" data-name="Layer 2"><g id="Layer_1-2" data-name="Layer 1"><path d="M199.26,35.29a43.72,43.72,0,0,1-10.49-14.08c-.15-.38-.2-.67-.31-1-.56-1.47-2.74-1.48-4.11-.6-1.72,1.07-2.83,3.36-3.45,5.32a5.43,5.43,0,0,0-.09,3.55c.2.33.45.29.55.14s.07-.17.16-.17c4.35,1.38,7.48,6.77,4.57,11a9.69,9.69,0,0,1-1.78,1.94c-.38.31-.45.45-.24.26a2.44,2.44,0,0,0,.65-1c.23-.8,0-1,.05-.91a6.38,6.38,0,0,0,1,2,7.34,7.34,0,0,0,2.43,2.49,3.46,3.46,0,0,0,4.23-1.76l1-.14c2.16,3.73-1.74,8.27-5.64,8.68-9.12,1.42-18.76-11.42-9.61-17.6.27-.15.16-.11-.12.35-.5.64-.63,2.31-.09,2.82.15.16.27.06.24,0-.68-.79-1.6-1.34-2.38-2.31-3.31-3.78-1.44-8.47,1.62-11.44,3.71-3.93,7.28-10.31,13.85-8.9,7.47,1.8,10.32,14.42,8.93,21l-.91.31Z" style="fill:#367660"/><path d="M143.78,47.61c-1.07-2.18-4.56-2.76-5.92-1.49a2.26,2.26,0,0,0-.65,1.32,2.54,2.54,0,0,0-.06,1.77c.57,1.61,3.17,2.58,6.42,2A4.3,4.3,0,0,0,143.78,47.61Z" style="fill:none;stroke:#367660;stroke-linecap:round;stroke-linejoin:round;stroke-width:6.428327752654079px"/><path d="M149.18,41.09a37,37,0,0,0-6.73-6.18,5.8,5.8,0,0,0-1.78-1.11c-3.39-1.29-7.25,1.15-9.71,3.37a2.67,2.67,0,0,0-.8,1.16c-.09.23,0,.2,0,.31A37.06,37.06,0,0,1,129.48,50a21.18,21.18,0,0,1-.85,2.93l-.64.12a18.22,18.22,0,0,1-3-5.25c-2.83-6.69-2.26-16.07,7-15.6a14.61,14.61,0,0,0,5.65-.76c2-.76,4.16-2.1,6.59-1.6,4.77.93,7.43,6.8,5.61,11.13l-.63.11Z" style="fill:#367660"/><path d="M90.49,59.6a24.71,24.71,0,0,0,11,4.08c2.07.21,4.27.25,6.66,1.77a7.81,7.81,0,0,1,2.37,2.35c3.36,5.15-.85,12.42-7,9.88-.4-.18-.68-.31-.68-.43s.37-.47.34-.71a1,1,0,0,0,0-.36c-.27-.31-.06.6.12.92,1.57,2.9,1.31,5.34-1.8,7C94,88,83.29,91.08,75.63,85.57c-7.49-5.65-6.37-18.5,2.43-22.15,3.74-1.87,6.87-1.14,9.91-3.76l1.07.28c.86,4.24-3.77,8-5.92,10.64-1.34,1.44-1.21,2.94-.67,4.6.65,1.51.72,2.14,2.85,2.92,1.23.44,2.89.68,4.71,1.14,3.49.78,7.5,2.83,10.82,1,.1,0-.15-.65-.74-1.4a5.45,5.45,0,0,1-1.23-2.91,4.06,4.06,0,0,1,2.88-3.86c1.24-.46,2.28-.38,3.06-.92.15-.15-.06-.34-.59-.19a2.75,2.75,0,0,0-1.62,1.88,1,1,0,0,0,.35,1.05,0,0,0,0,1,0,0c-.85-.3-2.42-.63-3.86-1.13a15.31,15.31,0,0,1-8-6.4,10.81,10.81,0,0,1-1.64-6.33l1-.47Z" style="fill:#367660"/><path d="M82.32,90.13a76,76,0,0,1,2.87,10.2,77.1,77.1,0,0,0,2.69,8.07c2,7.47,8.59,8.71,15.26,6.27a5.24,5.24,0,0,0,2.58-1.39c.07-.12.14-.23,0-.31s-.38-.07-.49.29a1.83,1.83,0,0,0,.07,1c.11.32.2.43.1.41a38.44,38.44,0,0,1-4.31-2.56c-4.46-2.91-8.28-7.86-8.75-13.48-.27-2.69.58-4.41-.17-6.88-.4-1.5-1.21-3.14-1.9-5l.66-.7a15.68,15.68,0,0,1,5.26,2.76c2.48,1.75,3.61,5.44,4.57,8a16,16,0,0,0,3.35,4.27c1.79,1.78,5.36,5,7.36,6.74a7.39,7.39,0,0,1,2.29,6,7.31,7.31,0,0,1-7.11,6.24c-3.15,0-5.7-.83-8.7-1.19-3.89-.67-7.55-1-11.41-2.46C78,113.44,76,103,78.84,95.2A22.4,22.4,0,0,1,81.36,90l1,.09Z" style="fill:#367660"/><path d="M92.06,118.73l-.07,8.5a5.89,5.89,0,0,0,.63,3.28c1.2,1.79,4.15,1.57,5.65,0s1.83-3.9,1.73-6a40,40,0,0,1-.32-6.46" style="fill:none;stroke:#367660;stroke-miterlimit:10;stroke-width:3.2141638763270395px"/><path d="M102.74,130.34c2.17.68,5.22,1,6.08-1.13a4.34,4.34,0,0,0,.13-2.09,30.62,30.62,0,0,0-2.85-9.83" style="fill:none;stroke:#367660;stroke-miterlimit:10;stroke-width:3.2141638763270395px"/><path d="M80.53,117.86c-4.62,1.16-9,4-14,4.27-6.43.74-13.55-2.82-16-9.2-1.3-3-1.6-6-2.11-9-1.85-11.78-1.83-25.53,5.82-35.55,2.9-4,5.47-6,7.7-9.6,1.5-2.75,2.27-6.35,4.16-9.35s4.55-5.26,6.83-7.66c5.19-5.35,5.39-12.78,6.4-20,.89-8.23,4.56-19,14.05-21.29,8.33-2.19,17.39,4.24,17.6,13.11a13.41,13.41,0,0,1-.78,4.85L99.08,4.5C112,1.6,125.66.07,138.88,2.3c5.45.76,11.3,2.8,16.63,3.73,7.94,1.51,16-.63,24.25,1,7.63,1.23,16.29,7.77,14.89,16.25l-2.28.31c-2.42-3.65-6.81-4.44-10.72-3.77-6.56,1.6-12,5.24-18.88,6.75-7.88,2.14-16.57,1.38-24.43.41-11.79-1.12-24.35-2.79-36.26-2.08L91,11a6.84,6.84,0,0,0,.12,4.86,4.5,4.5,0,0,0,5.37,2.74c.56-.12,1.3-1,.34-.85-7.46,3.54-10.65,17.63-15.56,24.57C79,46,74.91,49,73.81,53.05c-.49,2.61,0,5.21-.06,8.31-.28,7.92-3.7,14.91-4.74,22.2a188.27,188.27,0,0,0-2.31,19.78,23.87,23.87,0,0,1-.65,4.52c-.09.13-.23.12-.38.14a.36.36,0,0,0-.29.32c.16,1.08,1.23,1.66,2.45,2.35A18.72,18.72,0,0,0,71.52,112c3.1.83,6.8,1.62,9.54,3.64l-.53,2.24Z" style="fill:#367660"/><path d="M199.1,28.48c9.05-4.48,18.61-7.32,28.38-9.53s19.92-3.82,29.86-.54c10.75,3.64,18.35,11.26,25.07,18.87a130.81,130.81,0,0,1,20.44,30.61c6.29,12.77,11.22,25.87,20.14,36.92a66.62,66.62,0,0,0,9.67,9.62c3.18,2.74,6.68,4.2,9.38,7.91,1.94,2.76,2.47,5.57,3.38,8.34,1,3.35,2.3,6.91,3.47,10.19s2.58,6.87,3.91,10.09a24.23,24.23,0,0,1,2.18,10c0,11-12.33,19.46-22.54,13.72l17-10c1.75,8.43,3.32,17.44,3,27.37-.25,15.5-6.25,30.2-14.4,43.06C324.64,257,308.87,276.9,291.74,296c-7.44,8.53-16.62,18.45-29.17,18.29-5-.1-7.17-1-11-1.87a13.84,13.84,0,0,0-5.71.21c-4.15.83-8.64,2.51-13.16,2.94a18.68,18.68,0,0,1-7.45-.61l.07-3.3a17,17,0,0,0,5-2.83c6.1-5,11.56-11.66,20-13.52,1.65-.43,3.59-.65,5-.9a18.22,18.22,0,0,0,5-1.14c.78-.45.84-.88,1.34-1.53,2.09-3,4.86-8.64,6.78-12.17,2-3.78,4.11-7.47,6.2-11.18a408.49,408.49,0,0,1,27.67-42.68c8.64-11.78,19-21.83,21.4-36.68,1.46-6.94,2.36-14.92,3.41-23.41l17-10c-2.23-1.22-5.64-1.15-7.1.78a4.23,4.23,0,0,0-.83,2.19c.05.17.14.29.24.28s.44-.45.51-1.19a16.42,16.42,0,0,0,0-3l-.27-3.6c-.39-4.79-.87-9.56-1.51-14.32-.28-1.75-.73-5.23-1.06-6.82-.46-1.9-.39-2-1.87-3.34-9.79-7.4-19.34-15.37-28.65-23.5C288.84,90.6,274.7,76.55,263.83,61.22c-4.37-5.75-9.7-13.62-14.71-17.92-3.83-3.34-8.9-4-14.09-4.94-6.82-1-14.27-2.35-21.1-3.55-4.76-.9-9.56-1.8-14.47-3.05l-.36-3.28Z" style="fill:#367660"/><path d="M120.28,117.85c3.25-.86,6.39-1.28,9.35-2.22,2.6-.79,4.33-2,6.71-3.21,6.47-2.85,9.32-7.81,7.35-14.89a133.1,133.1,0,0,0-6.1-17.08,54.1,54.1,0,0,0-9-15.79l.39-.89a17.34,17.34,0,0,1,10.62,3.63C147.4,73,150.52,83,150,92.22c-.14,3.72-3,12-3.95,15.66s-1.82,7.59-4.4,10.6c-2.59,3.21-7.23,4.8-11.23,4.62A15.84,15.84,0,0,1,120,118.78l.24-.93Z" style="fill:#367660"/><path d="M160.68,54.39c17,4.72,28,23.37,26.5,40.66-1.09,12.54-9.68,23.08-19.14,30.59-3.3,2.83-7.59,4.94-10.13,8.27-1.7,2.25-2.92,5.88-4,8.67a37.27,37.27,0,0,1-5.51,9.9c-8.74,10.75-19.13,9.51-30.66,4.86-4.72-1.81-9-2.5-13.5-.5-4.65,2.55-9.92,4.69-15.58,1.74-5.23-2.75-7.82-8.16-8.94-13.18-.62-2.71-1-6.88-2.48-8.87-.45-.81-2.16-1.54-4.49-2.38-2.6-.94-6.05-2.73-6.82-5.81-1-2.74.09-7.52,3.7-7.1l.09,1.38c-1.56.78-.53,2.82.33,3.72a2,2,0,0,0,1.54.65c2,.3,3.94.09,6.26.41,7.29.8,10.94,7.55,13.24,13.68a12.31,12.31,0,0,0,3,4.67c.36.3.65.34.61.24-.31-.5-1.33,0,0-.72,8.81-6,19.36-5.59,28.42-.73,3.5,1.67,6.63,3.57,10,3.94,5.07.45,9.52-3,12.94-6.66,3.11-3.43,4.94-7.49,8.26-11a36.66,36.66,0,0,1,5.66-4.51c9.24-5.63,13.34-16.14,14.29-26.44.92-7.78.72-15.27-1.72-22.79A59.48,59.48,0,0,0,160,55.58l.72-1.19Z" style="fill:#367660"/><path d="M177.06,157.92c4.59,9.29-3,19.18-9.07,25.47a226.33,226.33,0,0,0-20.53,26.06c-2.79,4.16-6.16,6.56-11.55,6.12l-.1,0s0,0,0,0,.08-.1.08-.07c-.84,1.43-.5,4.19-.15,6,.72,3.21,1.42,6.75,2.06,10l2.52,13.33-5,1.22a31.94,31.94,0,0,1,5.11-22.61,30,30,0,0,1,5.11-5.85,1.45,1.45,0,0,1,2.37,1.43,59,59,0,0,0,2.37,34.46l-3.77-1.78a1.1,1.1,0,0,0,.29-.42,11,11,0,0,0,.46-4.41c-.11-5.57-.16-11.13-.1-16.7l.1-8.34a4.37,4.37,0,0,1,8.57-1.14c2.18,6.28,6.52,19,8.65,25.25l-9.38-.49a16.58,16.58,0,0,0,.8-4.31c.26-4.37.88-10.41,4.26-14.07,2.65-3,4.83-3.92,7.1-6.05a18.88,18.88,0,0,0,1.45-1.64,16.07,16.07,0,0,0,3-13.18,4.35,4.35,0,0,1,2.7-5c2.24-.87,4.45-1.81,6.59-2.84,6.31-3,12.32-7,16.74-12.38,5.86-7.2,8.74-17.48,5.13-26.53l.85-.47c6.27,8.89,4.7,21.63-1,30.56C197,198.78,187.67,205,178,209.58l2.61-5.33a25.1,25.1,0,0,1-6.15,23.93c-1.77,1.91-5.19,4.08-6.4,5.54a6.65,6.65,0,0,0-1.28,3c-1,4.82-.37,18.13-9.09,15.33a5.06,5.06,0,0,1-2.77-3.16l-3.75-12.8-3.7-12.82,8.58-1.13-.62,8.31c-.41,5.55-.93,11.09-1.51,16.63-.28,3.64-1.28,8.29-5.25,9.76a2.71,2.71,0,0,1-3.69-1.5,79.22,79.22,0,0,1,.12-37.06l2.36,1.43A23.26,23.26,0,0,0,143,225a24.38,24.38,0,0,0-2.67,19.83,2.54,2.54,0,0,1-4.83,1.6c-1.53-4.76-5.22-15-6.61-19.67-.64-2.19-1.67-4.92-1.84-7.22-.91-7.49,2.74-13.39,11-12.69.9-.21,1.67-1.39,2.48-2.4l2-2.73a144.73,144.73,0,0,1,21.26-22.63c3.46-2.94,6.79-5.66,9.24-9s4-7.53,3.06-11.84l.91-.34Z" style="fill:#367660"/><path d="M59.58,127.08C63.5,137.15,61,149,64.86,158.75c2,4.92,6,9.73,7.2,15.36,2.63,10.93-3.13,21-4.79,31.12-1.13,7.69.56,17.74,8.45,21l-4,3.11c-2.25-6-4.65-12-6.67-18.05a4.63,4.63,0,0,1,8.1-4.21,52.15,52.15,0,0,0,11.92,12.21L76,223.71a35,35,0,0,0-3.38-12.51,5.94,5.94,0,0,1,2.91-7.88c3.34-1.53,6.52.74,9.65,1.68l-7.7,6.9c-.62-2.94-1.15-6.06-.16-9.44a13.44,13.44,0,0,1,1.7-3.58c0,.41.14,0,.09-.37-.25-1.77-1-5.09-.89-7.2a27.58,27.58,0,0,1,1.17-7.79c2-7.05,5.39-12.22,7.26-18.85a25.12,25.12,0,0,0,.83-6.38l1.08-.26a20.91,20.91,0,0,1,1.7,7c.42,6.68-1.8,14-2.35,20.18a19.64,19.64,0,0,0,.35,6.77l.31,1.18c1,2.56,2,6.72.78,9.78a26.43,26.43,0,0,0-1.05,2.53,15.17,15.17,0,0,0,.68,3.81,5.8,5.8,0,0,1-7.7,6.9c-1.74-.55-3.47-1.17-5.2-1.76l7.35-8.2a38.79,38.79,0,0,1,3.71,17.73,5.46,5.46,0,0,1-9,4,55.77,55.77,0,0,1-12.49-15.41l8.51-3.64c1.18,6.29,2,12.67,2.94,19a2.73,2.73,0,0,1-2.13,3.53,2.64,2.64,0,0,1-1.86-.42,18.71,18.71,0,0,1-5.35-5.55c-6.24-10.34-3.8-22.74-3.56-34.07.1-5.92-.17-10.88-2-16-1.76-4.51-4.67-8.59-6.14-13.63-2.16-7-1.09-14.81.23-21.49.86-4.39,1.76-8.58,2.24-13l1.1-.16Z" style="fill:#367660"/><path d="M226.12,314.08c-9.25,3.17-16.87,8.73-25.45,13.9-17.73,11.57-39,12.84-59.3,13-13.28.37-25.44.24-37.92,3.27-.84.22-3.91,1.21-4.78,1.44A147.56,147.56,0,0,1,71.07,353a71.71,71.71,0,0,1-15.43.94c-3-.3-5.89-.52-8.5-2.34-2.43-1.78-1.78-4.68-.4-6.6,3.8-5.35,9-9.3,13.84-13.36,3.9-3.13,7.88-6.13,12-9,14.75-10.26,30.53-20.5,48.84-22.86,5-.55,12.61-.29,15.6-4.67.8-2.95,1.23-7.25,2.28-10.44,2.26-7.67,6.38-14.62,10.05-21.56a246.09,246.09,0,0,1,29.38-43.86A61.12,61.12,0,0,1,189.3,209a70.34,70.34,0,0,1,19.78-9.38c16.82-6,30.78-17.74,43.87-29.69l1.29,1.05A125.1,125.1,0,0,1,236,194.9a88.68,88.68,0,0,1-18.33,14.43c-4.16,2.46-8.78,4.26-12.74,6.82a57.54,57.54,0,0,0-6.49,4.8,55.07,55.07,0,0,0-7.12,8.36c-12.23,17-23.27,36.47-33.66,54.79a38.72,38.72,0,0,0-3.45,8.48c-.95,3.45-1.55,7.8-4,11.18-4.65,6.79-12.84,9.5-20.23,10-4.82.36-9.23-.21-14,.63-20.49,3.47-41.37,13.15-57.76,26-2.78,2.41-6.06,4.91-7.67,8.12a1,1,0,0,0-.1-.62.87.87,0,0,0-.22-.37,4,4,0,0,0,.94.42c6.07,1.45,12.42,0,18.46-1.64a109.89,109.89,0,0,0,22.68-10.19c2.23-1.28,4.72-2.49,7-3.61,1.34-.5,4.38-1.71,5.66-2.16,1.89-.57,3.89-1.12,5.78-1.63,19.82-4.67,39.74-1.4,59.19-2.7a85.54,85.54,0,0,0,20.12-3.71c7-2.25,13.54-5.24,20.75-7.41a50.9,50.9,0,0,1,15-2.49l.26,1.64Z" style="fill:#367660"/><path d="M133.68,296a11.24,11.24,0,0,1,1.22,2.39c1.31,5.09-3.87.67-4.31,3.16-.09.78.5,2,.59,2.82a3.23,3.23,0,0,1-.05,1.14,2.5,2.5,0,0,1-.7,1.78,4.39,4.39,0,0,1-2.92.48,11.75,11.75,0,0,1-2.91-.74l-.73-.63a13.06,13.06,0,0,1-1.2-2.8,4.6,4.6,0,0,1-.1-3c.25-.55.91-.75,1.57-1a3.25,3.25,0,0,1,1.08-.24c1-.13,3.09.74,3.48-.57.21-1.3-2.22-3.83.53-4.11a6.57,6.57,0,0,1,2.5.29,11.57,11.57,0,0,1,1.19.37l.76.6Z" style="fill:#367660"/><path d="M48.68,348C30.19,361.16-3.19,346.69.25,322.21c1-7.68,6.17-12.93,10.08-18.79a56.48,56.48,0,0,0,5.78-12.94c2.58-8.72,3.9-18.08,9-25.84,9.87-15.21,18.12-24.26,35.6-30.56,9.89-3.36,20.07-4.9,30.57-2.9l1.3,2.81A90.5,90.5,0,0,1,86,244.47C76.75,257,66.64,268.72,53.71,277c-1,.67-3.05,2.09-4,2.85-2.72,1.91-5.11,4.1-8.12,5.88-9.12,5.79-19,10.17-22.1,21.73-1.27,4.45-1,9.9,2.63,12.41,1.6,1,3,1.24,4.28,2.53,2.06,2.32,4.8,5.43,7.13,7.69,2.91,3,7.41,7.2,10.77,10.35,1.44,1.36,3,2.73,4.62,4.44L48.68,348Z" style="fill:#367660"/><path d="M89.84,218.2a97.86,97.86,0,0,1,3.94,15.36c.21,1,.34,2.15.55,2.83s.49,1,.58.79.29-.08.88.2a96.79,96.79,0,0,1,18.79,11.48A13.82,13.82,0,0,1,120,263.53c-.18.7-.5,2-.63,2.72a26.7,26.7,0,0,0,.22,12,35.48,35.48,0,0,0,11.72,19c-9.22-.16-17.59-6.77-21.85-14.93a30.88,30.88,0,0,1-3.6-16.19c0-1.69.74-4.83.78-6,0,.29.19.57.1.41-1.38-1.57-6-4.93-7.72-6.47l-4.63-3.75c-2.65-2.37-6.62-4.63-8.25-8.26-1.83-4.28-.33-7.55.31-11.5a90.18,90.18,0,0,1,3.43-12.26Z" style="fill:#367660"/></g></g></svg>