<svg xmlns="http://www.w3.org/2000/svg" viewBox="0 0 281.39 383.72"><g id="Layer_2" data-name="Layer 2"><g id="Layer_1-2" data-name="Layer 1"><path d="M134.77,133.67C113,121.18,115.42,102,136.93,91l1-.53a.61.61,0,0,1,.87.5c.22,3.07.2,7.58.19,10.71-.11,8.87-.65,17.93-1.62,26.77-.25,1.78-.43,3.56-.74,5.33a.65.65,0,0,1-.94.46l-1-.54Z" style="fill:#367660"/><path d="M119.77,94.21a1464.43,1464.43,0,0,1,4.06,152.94c-.62,16.27-1.52,36-2.14,50.55,4.42,23.08,9.13,46.61,17.58,68.5a16.93,16.93,0,0,0,2.4,4.36s.09,0-.13-.11a1.93,1.93,0,0,0-1.78.06,1.82,1.82,0,0,0-.63.56s0-.13.05-.26c.6-4.47.07-9.28-.16-14-.8-11.29-1.94-24-2.71-35.44a1241.62,1241.62,0,0,1-1.66-130.7c1.54-39.48,2.37-78.92,5.11-118.44a.55.55,0,0,1,.58-.51.56.56,0,0,1,.51.5q4.72,59.28,4.77,118.69c-.09,39.13-1,79.19-.37,118.26.12,19.83,1.06,39.67-.25,59.63-.37,2.11-.33,4.72-2.62,6.25-4.46,2-6.33-4.1-7.52-7.14-2.61-7.66-4.4-15.34-6.3-23.13-3.61-15-7.28-31.31-11-46.21-.68-17.13-1.66-34.28-2.33-51.42-1.31-34-.55-68,.57-102,.65-17,1.45-34,2.89-51a.55.55,0,0,1,1.09,0Z" style="fill:#367660"/><path d="M120.94,84.91c21.74,11.08,21.63,31.63,0,42.75l-1,.5a.64.64,0,0,1-.92-.5c-.38-3-.58-7.56-.73-10.68-.34-8.84-.26-17.88.26-26.73.16-1.78.25-3.56.47-5.34a.65.65,0,0,1,.92-.5l1,.5Z" style="fill:#367660"/><path d="M59.13,13.07A187.34,187.34,0,0,0,80.28,34.9l.15.14c.32.13,1.44,1,1.79,1.26,8.88,6.38,17.68,13,27.65,17.7,8.23,4.23,13.62,12,17.7,20.11a52.48,52.48,0,0,1,4.87,15.48l-2.12,2.72a2.24,2.24,0,0,1,2.13-2.71,1.22,1.22,0,0,1,.31,2.43C118.24,94.3,98.93,88.9,90.13,76.84c-2.85-3.73-5.44-7.78-8.47-11.38A152.85,152.85,0,0,1,67,45.07a117.17,117.17,0,0,1-9.14-23.81c-.56-2.3-1.11-4.59-1.5-6.91a1.59,1.59,0,0,1,2.77-1.28Z" style="fill:#367660"/><path d="M205.87,15.85c-6.4,1.08-12.49,1.86-18.6,3.37-3,.72-6,1.5-9,2a261.6,261.6,0,0,1-84,1.1c-12.7-2-25.12-4.75-37.24-9.64l.8-1.12c-.09,2.55.07,2.4-1.58.57a.56.56,0,0,1,.06-.79A126.4,126.4,0,0,1,75.76,5.48c30.61-6.76,62-7,92.94-2.26,12.84,2.29,26.68,4.29,37.17,12.63Z" style="fill:#367660"/><path d="M152.44,66.64c-4.79-4.52-13.32-5.9-19.18-3.23h.13l.15,0c1.12-.14,3.42-.64,4.56-.87,12.61-2.81,25.35-7,36.57-13.33a68.94,68.94,0,0,0,9.15-6.33c8-6.72,19.7-16.47,22.05-27,2,11.59-6.32,27.36-11.75,37.47-10.38,18-27,32-43.88,43.63-.57.36-2,1.29-2.57,1.64a19.77,19.77,0,0,1-16.06-.39C120.44,93,117.51,78,125.53,68.79a19.08,19.08,0,0,1,26.91-2.15Z" style="fill:#367660"/><path d="M140.06,287.08c12.43-5.95,26-8.8,39.49-10.56A8.67,8.67,0,0,1,189,283l.46,1.82c1.34,5.33,2.43,10.71,3.32,16.12.94,5.85,1.7,11.74,2.08,17.65a9.8,9.8,0,0,0-.64-3.52l.57,2.33a133.92,133.92,0,0,1-2.63,36.1,65.4,65.4,0,0,1-3.79,12.06,112,112,0,0,1-5.09-11.41c-1.46-3.79-2.77-7.57-3.92-11.39a219.51,219.51,0,0,1-5.44-22.73l.57,2.33a11.26,11.26,0,0,1-.67-3.77l.08,1.32A194,194,0,0,1,170,288l9.93,8.32c-13.53-1.29-27.2-3.68-39.84-9.2Z" style="fill:#367660"/><path d="M86.86,371.64c-16.5-23.34-20.63-53.31-17.56-81.18.06-.39.18-1.65.25-2,0-.05,0-.43.07-.49a9.74,9.74,0,0,0,3.25,7.45l6.55-17.05c13.64,1.3,27.4,3.7,40.2,9.09-12.7,5.87-26.5,8.71-40.2,10.48L86,280.85A10.19,10.19,0,0,1,88.67,285a10.4,10.4,0,0,1,.55,3.67c0,.27.06.85.08,1.14.16,2.27.4,6.6.52,8.93.64,13.61.63,27.21.15,40.81-.33,10.53-.91,21.76-3.11,32.13Z" style="fill:#367660"/><path d="M140.71,276.09c0,4.54-6.44,6.61-10.2,6.51-3.63.11-10.48-2.32-9.89-6.86,1.48,1.34,3.16,1.27,4.93,1.52a68.67,68.67,0,0,0,10,.1c1.81-.19,3.48-.14,5.12-1.27Z" style="fill:#367660"/><path d="M140.12,125.85c3.17,3.12,1,8.71-1.54,11.31a10.89,10.89,0,0,1-16.31-.16c-2.5-2.65-4.73-8.71-1.06-11.49a4.4,4.4,0,0,0,3-.62c1.57-.94,3-2.9,3.9-4,1.08-1.34,1.79-2,2.54-1.93s1.48.64,2.59,2c1.54,1.9,3.85,5.09,6.89,4.94Z" style="fill:#367660"/><path d="M139.7,286c-.06,4.58-6.4,6.59-10.19,6.52-3.63.1-10.49-2.32-9.89-6.87,1.48,1.34,3.15,1.27,4.93,1.53a68.65,68.65,0,0,0,10,.1c1.81-.2,3.47-.14,5.11-1.28Z" style="fill:#367660"/><path d="M79.49,316.37c-9.5,1.64-18.94,3.12-28.24,5.49-11,2.59-21.92,6.38-30.83,13.46-2.5,1.86-5.57,5-6.05,7.46,0,.73.33,1,.75,1.78,4.51,6,12.2,9.53,19.24,12.46,18.66,7.72,38.26,7,57.88,2.82,15.7-3,31.56-5.72,47.58-6.82a282.26,282.26,0,0,1,33.67,0c8.31.48,18.06-.68,26.71-1.55,18.31-2.17,37-4.85,54.67-9.88a48.22,48.22,0,0,0,11-4.47,5.45,5.45,0,0,0-.56,2.25,4.48,4.48,0,0,0,.71,2.47c.22.26.25.21.19.12-2.1-2.15-5.13-3.31-8.09-4.63a170.22,170.22,0,0,0-19.72-6.45c-9.12-2.49-18.43-4.61-27.73-6.38-4.83-.84-16.73-2.9-21.35-3.88a36.69,36.69,0,0,1-6-1.51c-.08.05-.12-.35,0-.32a3.21,3.21,0,0,1,1.07,0,3.45,3.45,0,0,0-.93.26c0,.06,0-.23,0-.15,3.6.21,9.59-.22,13.24-.32,19.56-1,39.22-.19,58.53,3.57,9.18,2.13,24.56,5,26.13,16.41.79,11.24-12,16.46-20.49,20.05-23.65,8.89-47.72,13.48-72.61,16.33a119.88,119.88,0,0,1-15.89.71c-9.23-.34-18.47-.46-27.68.07-1.7.06-5.17.29-6.88.4-11.55.91-23.2,2.58-34.72,4.28C88,382.91,73,385,57.31,382.84,39.47,380.39,19.65,372.26,7,359.13c-15-16.6-3.85-30.31,13.71-37.5,9.31-4.07,19.52-5.58,29.62-6.05a193.12,193.12,0,0,1,29.16.79Z" style="fill:#367660"/></g></g></svg>