<svg width="20" height="22" viewBox="0 0 20 22" fill="none" xmlns="http://www.w3.org/2000/svg">
<path d="M11.6781 2.56452L10.932 2.48813C10.9073 2.73023 11.0015 2.9693 11.1848 3.12939C11.3681 3.28948 11.6176 3.35069 11.8542 3.29356L11.6781 2.56452ZM12.9889 2.559L12.7962 3.28382C13.0599 3.35394 13.341 3.27526 13.5299 3.07839C13.7189 2.88152 13.7861 2.59754 13.7052 2.33688L12.9889 2.559ZM11.718 2.15209L10.9713 2.08098L10.9712 2.08223L11.718 2.15209ZM11.718 2.152L12.4647 2.22311L12.4657 2.21064L11.718 2.152ZM11.718 2.15196L10.9711 2.08209L10.9703 2.09332L11.718 2.15196ZM11.8201 1.22162L11.0777 1.11546L11.0777 1.11554L11.8201 1.22162ZM12.1825 1.10649L11.6836 1.6665L11.6839 1.66676L12.1825 1.10649ZM10.6937 6.31797L11.4428 6.35474C11.4431 6.34823 11.4434 6.34171 11.4435 6.33519L10.6937 6.31797ZM11.3252 3.79698L11.9672 4.18462L11.9677 4.1838L11.3252 3.79698ZM10.9094 7.71133L10.1924 7.93128L10.1928 7.93266L10.9094 7.71133ZM11.5283 8.73723L12 8.15414L11.9999 8.15402L11.5283 8.73723ZM13.4391 8.7672L13.8333 9.4053L13.8333 9.40527L13.4391 8.7672ZM14.6362 6.03646L15.3722 5.89226L15.3721 5.89174L14.6362 6.03646ZM12.7857 3.33726L12.3895 3.97403L12.3898 3.97422L12.7857 3.33726ZM12.0186 3.19611L12.2196 3.91868L12.2207 3.91836L12.0186 3.19611ZM8.28482 7.97869L7.58392 7.71178L7.58387 7.71192L8.28482 7.97869ZM8.5876 6.30697L9.33755 6.31824L9.33759 6.31076L8.5876 6.30697ZM5.83982 8.75935L6.23475 8.12175L6.23436 8.12151L5.83982 8.75935ZM4.65615 5.95054L5.38866 6.11156L5.38869 6.1114L4.65615 5.95054ZM6.36929 3.413L5.94449 2.7949L5.9437 2.79544L6.36929 3.413ZM7.1388 3.17012L7.19541 2.42226L7.19296 2.42208L7.1388 3.17012ZM7.87771 3.66849L7.26495 4.10095L7.26513 4.10121L7.87771 3.66849ZM8.50838 5.38516L9.24812 5.26156L9.24802 5.26095L8.50838 5.38516ZM1.84638 9.40199L1.27733 8.91344L1.27711 8.91369L1.84638 9.40199ZM1 11.8954L0.250477 11.8686C0.249824 11.8869 0.249841 11.9052 0.250529 11.9235L1 11.8954ZM2.89513 8.77904L2.95829 9.52637L2.95899 9.52631L2.89513 8.77904ZM3.8223 9.08263L4.25457 8.46973L4.2538 8.46919L3.8223 9.08263ZM5.3315 10.8198L4.69764 11.2207L4.69765 11.2207L5.3315 10.8198ZM5.82254 11.6919L5.15928 12.0421L5.15995 12.0433L5.82254 11.6919ZM5.80136 13.0585L6.45617 13.4242L6.4565 13.4236L5.80136 13.0585ZM5.0529 13.9447L5.57184 14.4862L5.57594 14.4823L5.0529 13.9447ZM5.05283 13.9448L4.5339 13.4033C4.53006 13.407 4.52626 13.4107 4.5225 13.4145L5.05283 13.9448ZM5.05279 13.9448L5.57588 14.4824L5.58312 14.4752L5.05279 13.9448ZM4.80595 14.1893L5.34286 14.7129L5.34292 14.7129L4.80595 14.1893ZM4.16587 14.7373L4.61037 15.3414L4.611 15.3409L4.16587 14.7373ZM2.6449 14.7673L2.20075 15.3716L2.20087 15.3717L2.6449 14.7673ZM10.8177 20.7914L10.9902 20.0615L10.9899 20.0614L10.8177 20.7914ZM12.159 21L12.1619 20.25H12.159V21ZM10.7125 20.7666L10.8847 20.0366L10.883 20.0362L10.7125 20.7666ZM8.34912 20.817L8.15637 20.0922L8.15576 20.0924L8.34912 20.817ZM6.16376 20.8801L6.35113 20.1539L6.3509 20.1538L6.16376 20.8801ZM4.31412 19.154L3.60598 19.401L3.6062 19.4017L4.31412 19.154ZM4.19568 17.5753L4.91359 17.7923L4.91365 17.7921L4.19568 17.5753ZM5.31738 16.2379L4.90279 15.6129L4.90208 15.6134L5.31738 16.2379ZM6.74108 15.1363L7.2781 15.6599L7.2783 15.6597L6.74108 15.1363ZM7.69179 13.7043L7.02293 13.365L7.02272 13.3654L7.69179 13.7043ZM8.93272 12.4206L9.21712 13.1146L9.21726 13.1145L8.93272 12.4206ZM11.2059 13.1003L10.6074 13.5523L10.6076 13.5524L11.2059 13.1003ZM11.6876 13.8857L11.0083 14.2036L11.0083 14.2037L11.6876 13.8857ZM13.5678 15.9714L13.9796 15.3446L13.9788 15.3441L13.5678 15.9714ZM14.28 16.4579L13.8461 17.0696L13.8465 17.0699L14.28 16.4579ZM15.1044 18.6927L15.8344 18.8649L15.8345 18.8643L15.1044 18.6927ZM13.8988 20.5521L14.2916 21.191L14.292 21.1907L13.8988 20.5521ZM18.2727 11.8591L19.0223 11.8832C19.0227 11.8693 19.0228 11.8554 19.0225 11.8415L18.2727 11.8591ZM16.689 14.7397L17.1417 15.3376L17.142 15.3374L16.689 14.7397ZM17.4373 9.3957L16.8651 9.88056L16.8659 9.88149L17.4373 9.3957ZM16.405 8.78063L16.3389 9.52771L16.3394 9.52775L16.405 8.78063ZM15.3312 9.18042L14.8633 8.59424L14.8631 8.59439L15.3312 9.18042ZM13.5294 11.5358L14.1851 11.8998L14.1852 11.8996L13.5294 11.5358ZM13.7521 13.4386L13.1905 13.9356L13.1909 13.9361L13.7521 13.4386ZM15.1178 14.7342L15.5742 14.139L15.5738 14.1387L15.1178 14.7342ZM2.29187 8.18665L2.46347 8.91677L2.46857 8.91554L2.29187 8.18665ZM2.2919 8.18664L2.1203 7.45652L2.1152 7.45776L2.2919 8.18664ZM1.11373 8.81377L0.37139 8.92068C0.41086 9.19475 0.598127 9.42477 0.858496 9.519C1.11887 9.61324 1.40997 9.55634 1.61571 9.37101L1.11373 8.81377ZM1.16942 7.08449L1.87731 7.33227L1.87743 7.33194L1.16942 7.08449ZM1.65027 6.9938L2.21788 6.50358L2.21631 6.50177L1.65027 6.9938ZM2.01471 7.51224L2.65783 7.12636C2.65496 7.12158 2.65203 7.11682 2.64905 7.1121L2.01471 7.51224ZM2.01472 7.51224L1.3716 7.89812C1.37447 7.9029 1.3774 7.90766 1.38038 7.91238L2.01472 7.51224ZM2.10522 7.65461L2.73531 7.2478L2.73529 7.24777L2.10522 7.65461ZM2.3349 7.99689L2.9709 7.59939C2.96545 7.59068 2.95983 7.58208 2.95403 7.57359L2.3349 7.99689ZM2.3349 7.9969L1.6989 8.39439C1.70435 8.40311 1.70997 8.41171 1.71577 8.42019L2.3349 7.9969ZM2.44017 8.15139L2.61709 8.88022C2.85588 8.82226 3.05113 8.65099 3.13973 8.42179C3.22832 8.19259 3.19901 7.93452 3.06129 7.73102L2.44017 8.15139ZM18.1676 8.8398L17.5999 9.32999C17.7923 9.55278 18.0972 9.64242 18.3796 9.5592C18.662 9.47597 18.8695 9.23527 18.9103 8.94375L18.1676 8.8398ZM16.8309 8.15455L16.2473 7.68352C16.0796 7.89129 16.035 8.17255 16.1302 8.422C16.2254 8.67144 16.4461 8.85146 16.7096 8.89467L16.8309 8.15455ZM18.1221 7.08607L18.8308 6.84083L18.8308 6.8407L18.1221 7.08607ZM17.6412 6.99381L17.0736 6.50363L17.0733 6.50399L17.6412 6.99381ZM17.2138 7.59969L16.5807 7.19766V7.19766L17.2138 7.59969ZM6.29239 2.5661L5.57671 2.34181C5.49402 2.60565 5.56321 2.89359 5.75674 3.09106C5.95028 3.28853 6.23676 3.36351 6.50222 3.28615L6.29239 2.5661ZM7.08386 1.127L7.5958 1.6751L7.59681 1.67416L7.08386 1.127ZM7.60235 2.56058L7.43912 3.2926C7.67296 3.34474 7.91763 3.28203 8.09756 3.12384C8.27749 2.96565 8.37102 2.73102 8.34925 2.49243L7.60235 2.56058ZM7.56975 2.19551L8.31684 2.12952V2.12952L7.56975 2.19551ZM7.48155 1.26657L8.2272 1.18583L8.22701 1.18418L7.48155 1.26657ZM7.33565 1.00793L7.11813 1.72569L7.1191 1.72599L7.33565 1.00793ZM7.10354 1.10828L7.62232 1.64991L7.62233 1.6499L7.10354 1.10828ZM11.8542 3.29356C12.2001 3.21003 12.4927 3.20315 12.7962 3.28382L13.1816 1.83417C12.5893 1.67671 12.0379 1.70609 11.5021 1.83547L11.8542 3.29356ZM10.9712 2.08223C10.9584 2.21898 10.9459 2.35311 10.932 2.48813L12.4242 2.6409C12.4388 2.4983 12.452 2.35768 12.4647 2.22195L10.9712 2.08223ZM10.9713 2.08089L10.9713 2.08098L12.4646 2.2232L12.4646 2.22311L10.9713 2.08089ZM10.9703 2.09332L10.9703 2.09335L12.4657 2.21064L12.4657 2.21061L10.9703 2.09332ZM11.0777 1.11554C11.0309 1.4432 11.0004 1.77032 10.9712 2.0821L12.4647 2.22182C12.4945 1.90376 12.5218 1.61315 12.5626 1.3277L11.0777 1.11554ZM12.6814 0.546484C12.5976 0.471821 12.4837 0.385671 12.3414 0.325568C12.197 0.264609 11.9751 0.211611 11.7255 0.287038C11.2014 0.44544 11.1004 0.956499 11.0777 1.11546L12.5626 1.32779C12.5641 1.31705 12.5593 1.36925 12.5161 1.44497C12.4672 1.53057 12.3564 1.66338 12.1595 1.7229C11.9719 1.7796 11.8217 1.73439 11.7578 1.70738C11.6959 1.68124 11.671 1.65521 11.6836 1.6665L12.6814 0.546484ZM13.7052 2.33688C13.5266 1.76062 13.276 1.07559 12.6811 0.546223L11.6839 1.66676C11.9504 1.90387 12.1045 2.23922 12.2725 2.78112L13.7052 2.33688ZM11.4435 6.33519C11.4624 5.51197 11.5948 4.80149 11.9672 4.18462L10.6831 3.40935C10.1205 4.34118 9.9658 5.34816 9.94392 6.30075L11.4435 6.33519ZM11.6265 7.49139C11.4982 7.07313 11.4255 6.708 11.4428 6.35474L9.94462 6.2812C9.91489 6.88682 10.043 7.44428 10.1924 7.93128L11.6265 7.49139ZM11.9999 8.15402C11.8439 8.02793 11.7311 7.83019 11.626 7.49001L10.1928 7.93266C10.3294 8.37471 10.5554 8.91506 11.0568 9.32045L11.9999 8.15402ZM13.045 8.1291C12.6432 8.37729 12.2058 8.32061 12 8.15414L11.0566 9.32033C11.8471 9.95976 12.9942 9.92357 13.8333 9.4053L13.045 8.1291ZM13.9001 6.18065C14.0418 6.90368 13.6695 7.74336 13.045 8.12913L13.8333 9.40527C14.9832 8.69496 15.6353 7.23523 15.3722 5.89226L13.9001 6.18065ZM12.3898 3.97422C13.2156 4.4876 13.7103 5.21518 13.9002 6.18118L15.3721 5.89174C15.1039 4.52837 14.3702 3.43913 13.1817 2.7003L12.3898 3.97422ZM12.2207 3.91836C12.234 3.91464 12.2454 3.91374 12.2649 3.91784C12.2889 3.92289 12.3303 3.93721 12.3895 3.97403L13.182 2.70049C12.8378 2.48631 12.3588 2.32207 11.8164 2.47386L12.2207 3.91836ZM11.9677 4.1838C12.0962 3.97036 12.1719 3.93195 12.2196 3.91868L11.8176 2.47354C11.2189 2.64006 10.8836 3.07635 10.6826 3.41016L11.9677 4.1838ZM8.98572 8.2456C9.2286 7.6078 9.32783 6.9629 9.33752 6.31824L7.83769 6.2957C7.83012 6.79916 7.75364 7.26611 7.58392 7.71178L8.98572 8.2456ZM5.44489 9.39695C5.97871 9.7276 6.67331 9.89497 7.34905 9.74148C8.06125 9.5797 8.66862 9.07881 8.98577 8.24545L7.58387 7.71192C7.43586 8.10082 7.21411 8.23392 7.01679 8.27874C6.78301 8.33184 6.48768 8.27842 6.23475 8.12175L5.44489 9.39695ZM3.92363 5.78953C3.62417 7.15188 4.26175 8.6651 5.44528 9.39719L6.23436 8.12151C5.59492 7.72598 5.22532 6.85463 5.38866 6.11156L3.92363 5.78953ZM5.9437 2.79544C4.88974 3.52179 4.20047 4.52886 3.9236 5.78968L5.38869 6.1114C5.58247 5.22895 6.04784 4.54538 6.79489 4.03055L5.9437 2.79544ZM7.19296 2.42208C6.68024 2.38496 6.2564 2.58053 5.94449 2.7949L6.7941 4.03109C6.94342 3.92847 7.03101 3.91428 7.08464 3.91817L7.19296 2.42208ZM8.49047 3.23603C8.26718 2.91964 7.8688 2.47323 7.19541 2.42226L7.08219 3.91799C7.09017 3.91859 7.0967 3.9185 7.11833 3.93453C7.14923 3.95744 7.19725 4.00503 7.26495 4.10095L8.49047 3.23603ZM9.24802 5.26095C9.13786 4.60496 8.94871 3.88473 8.49029 3.23576L7.26513 4.10121C7.53307 4.48051 7.67338 4.94152 7.76873 5.50936L9.24802 5.26095ZM9.33759 6.31076C9.33942 5.95028 9.30471 5.60024 9.24812 5.26156L7.76863 5.50875C7.81402 5.78041 7.83892 6.04385 7.83761 6.30317L9.33759 6.31076ZM1.27711 8.91369C0.550768 9.76046 0.290299 10.753 0.250477 11.8686L1.74952 11.9221C1.78187 11.016 1.98263 10.3951 2.41564 9.8903L1.27711 8.91369ZM2.83198 8.0317C2.09361 8.0941 1.60345 8.53359 1.27733 8.91344L2.41542 9.89055C2.6431 9.62536 2.80086 9.53968 2.95829 9.52637L2.83198 8.0317ZM4.2538 8.46919C3.91219 8.2289 3.43484 7.98018 2.83127 8.03176L2.95899 9.52631C3.05668 9.51797 3.17862 9.54681 3.3908 9.69607L4.2538 8.46919ZM5.96536 10.4189C5.54126 9.74836 5.02605 9.01384 4.25457 8.46973L3.39003 9.69553C3.90655 10.0598 4.29184 10.5791 4.69764 11.2207L5.96536 10.4189ZM6.4858 11.3418C6.33093 11.0484 6.1613 10.7287 5.96535 10.4189L4.69765 11.2207C4.85783 11.4739 5.00196 11.744 5.15928 12.0421L6.4858 11.3418ZM6.4565 13.4236C6.82655 12.7595 6.8558 12.0395 6.48514 11.3406L5.15995 12.0433C5.2819 12.2733 5.27977 12.4538 5.14622 12.6934L6.4565 13.4236ZM5.57594 14.4823C5.84097 14.2244 6.20102 13.8811 6.45617 13.4242L5.14655 12.6928C5.01535 12.9277 4.81993 13.125 4.52986 13.4072L5.57594 14.4823ZM5.57176 14.4863L5.57183 14.4862L4.53397 13.4032L4.5339 13.4033L5.57176 14.4863ZM5.58313 14.4752L5.58316 14.4751L4.5225 13.4145L4.52247 13.4145L5.58313 14.4752ZM5.58312 14.4752L5.58313 14.4752L4.52247 13.4145L4.52246 13.4145L5.58312 14.4752ZM5.34292 14.7129C5.41565 14.6383 5.4916 14.5643 5.57583 14.4824L4.52975 13.4073C4.44788 13.487 4.35775 13.5746 4.26898 13.6657L5.34292 14.7129ZM4.611 15.3409C4.8592 15.1579 5.1093 14.9524 5.34286 14.7129L4.26903 13.6656C4.10883 13.8299 3.92593 13.9824 3.72074 14.1337L4.611 15.3409ZM2.20087 15.3717C2.57785 15.6486 2.99797 15.8463 3.48145 15.8164C3.94263 15.7878 4.31644 15.5577 4.61037 15.3414L3.72137 14.1332C3.48269 14.3088 3.40194 14.3184 3.38875 14.3192C3.38712 14.3193 3.37188 14.3212 3.33033 14.3055C3.28316 14.2878 3.2054 14.2484 3.08893 14.1628L2.20087 15.3717ZM0.250529 11.9235C0.303871 13.3431 1.0594 14.5328 2.20075 15.3716L3.08905 14.1629C2.24115 13.5398 1.78241 12.7439 1.74947 11.8672L0.250529 11.9235ZM10.6452 21.5213C11.0729 21.6223 11.5986 21.75 12.159 21.75V20.25C11.8022 20.25 11.4459 20.1691 10.9902 20.0615L10.6452 21.5213ZM10.5404 21.4965L10.6456 21.5213L10.9899 20.0614L10.8847 20.0366L10.5404 21.4965ZM8.54187 21.5418C9.21524 21.3628 9.88015 21.3425 10.5421 21.4969L10.883 20.0362C9.96357 19.8216 9.04868 19.8549 8.15637 20.0922L8.54187 21.5418ZM5.97639 21.6063C6.87326 21.8377 7.73464 21.7572 8.54248 21.5417L8.15576 20.0924C7.51558 20.2632 6.92738 20.3026 6.35113 20.1539L5.97639 21.6063ZM3.6062 19.4017C3.99962 20.5262 4.79031 21.3007 5.97662 21.6064L6.3509 20.1538C5.67659 19.9801 5.2593 19.5844 5.02205 18.9063L3.6062 19.4017ZM3.47777 17.3583C3.24482 18.1288 3.40709 18.8309 3.60598 19.401L5.02227 18.9069C4.8619 18.4472 4.81709 18.1115 4.91359 17.7923L3.47777 17.3583ZM4.90208 15.6134C4.34253 15.9855 3.73739 16.4987 3.47771 17.3585L4.91365 17.7921C5.02264 17.4313 5.27721 17.1653 5.73269 16.8624L4.90208 15.6134ZM6.20406 14.6128C5.8438 14.9823 5.41115 15.2757 4.90279 15.6129L5.73198 16.8629C6.22452 16.5362 6.78963 16.1609 7.2781 15.6599L6.20406 14.6128ZM7.02272 13.3654C6.76785 13.8686 6.52889 14.2793 6.20386 14.613L7.2783 15.6597C7.77063 15.1543 8.0933 14.5714 8.36086 14.0432L7.02272 13.3654ZM8.64832 11.7266C7.81012 12.0701 7.3373 12.7453 7.02293 13.365L8.36064 14.0436C8.60791 13.5562 8.86616 13.2584 9.21712 13.1146L8.64832 11.7266ZM11.8044 12.6483C11.0504 11.6498 9.82743 11.2431 8.64818 11.7266L9.21726 13.1145C9.70723 12.9136 10.2241 13.0447 10.6074 13.5523L11.8044 12.6483ZM12.3669 13.5678C12.209 13.2304 12.0144 12.9261 11.8043 12.6481L10.6076 13.5524C10.7693 13.7665 10.9041 13.9811 11.0083 14.2036L12.3669 13.5678ZM13.9788 15.3441C13.259 14.8724 12.711 14.3029 12.3668 13.5677L11.0083 14.2037C11.4956 15.2443 12.2591 16.0106 13.1567 16.5987L13.9788 15.3441ZM14.714 15.8462C14.4723 15.6748 14.2273 15.5073 13.9796 15.3446L13.1559 16.5982C13.3884 16.7509 13.6187 16.9083 13.8461 17.0696L14.714 15.8462ZM15.8345 18.8643C16.1091 17.6967 15.6938 16.5403 14.7136 15.8459L13.8465 17.0699C14.3112 17.3991 14.514 17.927 14.3744 18.521L15.8345 18.8643ZM14.292 21.1907C15.2173 20.621 15.6294 19.7338 15.8344 18.8649L14.3745 18.5205C14.2186 19.1813 13.9609 19.6331 13.5056 19.9134L14.292 21.1907ZM12.1561 21.75C12.8775 21.7527 13.6139 21.6076 14.2916 21.191L13.506 19.9131C13.1216 20.1495 12.6768 20.2519 12.1619 20.25L12.1561 21.75ZM17.5231 11.835C17.4939 12.7439 17.0496 13.5254 16.236 14.1419L17.142 15.3374C18.2533 14.4952 18.9762 13.3179 19.0223 11.8832L17.5231 11.835ZM16.8659 9.88149C17.3043 10.3971 17.5029 11.026 17.5229 11.8768L19.0225 11.8415C18.997 10.7587 18.7328 9.76162 18.0087 8.9099L16.8659 9.88149ZM16.3394 9.52775C16.4926 9.54121 16.6486 9.62508 16.8651 9.88056L18.0095 8.91083C17.6847 8.52759 17.1975 8.09733 16.4706 8.0335L16.3394 9.52775ZM15.799 9.7666C16.0555 9.56187 16.2062 9.51597 16.3389 9.52771L16.4711 8.03355C15.7661 7.97117 15.2312 8.30061 14.8633 8.59424L15.799 9.7666ZM14.1852 11.8996C14.6665 11.0321 15.1296 10.3012 15.7992 9.76646L14.8631 8.59439C13.9451 9.3276 13.3634 10.289 12.8735 11.172L14.1852 11.8996ZM14.3138 12.9416C14.1327 12.7369 14.0657 12.5697 14.049 12.4366C14.0327 12.3069 14.0546 12.1349 14.1851 11.8998L12.8736 11.1718C12.6198 11.629 12.4974 12.1194 12.5607 12.6236C12.6236 13.1243 12.8601 13.5622 13.1905 13.9356L14.3138 12.9416ZM15.5738 14.1387C15.1221 13.7928 14.7091 13.3875 14.3134 12.9411L13.1909 13.9361C13.6298 14.4312 14.1126 14.9091 14.6618 15.3296L15.5738 14.1387ZM16.2362 14.1418C16.002 14.3191 15.9115 14.3167 15.9012 14.3165C15.8851 14.3162 15.7977 14.3104 15.5742 14.139L14.6614 15.3293C14.9901 15.5814 15.3878 15.8059 15.8691 15.8162C16.3561 15.8266 16.7751 15.6153 17.1417 15.3376L16.2362 14.1418ZM2.46857 8.91554L2.4686 8.91553L2.1152 7.45776L2.11517 7.45776L2.46857 8.91554ZM1.61571 9.37101C1.85543 9.15507 1.97914 9.07631 2.06228 9.03576C2.14802 8.99395 2.22898 8.97187 2.46347 8.91676L2.12027 7.45654C1.91067 7.50581 1.66558 7.56036 1.40477 7.68755C1.14138 7.816 0.898067 7.99861 0.611758 8.25653L1.61571 9.37101ZM0.461538 6.8367C0.196692 7.59334 0.286704 8.33263 0.37139 8.92068L1.85607 8.70686C1.77133 8.1184 1.74525 7.70956 1.87731 7.33227L0.461538 6.8367ZM2.21631 6.50177C2.13645 6.4099 2.02746 6.30001 1.88812 6.21483C1.74509 6.12739 1.51287 6.03289 1.23107 6.08536C0.948137 6.13805 0.764807 6.31095 0.662253 6.44662C0.562896 6.57806 0.501779 6.72157 0.461422 6.83703L1.87743 7.33194C1.89316 7.28694 1.89234 7.30684 1.85885 7.35114C1.82216 7.39968 1.71026 7.52192 1.50567 7.56001C1.30221 7.5979 1.15525 7.52489 1.10574 7.49462C1.05992 7.46661 1.0527 7.44957 1.08423 7.48584L2.21631 6.50177ZM2.64905 7.1121C2.54123 6.94117 2.3995 6.71387 2.21788 6.50358L1.08266 7.48403C1.17861 7.59513 1.26257 7.72563 1.38037 7.91238L2.64905 7.1121ZM2.65784 7.12637L2.65783 7.12636L1.37159 7.89811L1.3716 7.89812L2.65784 7.12637ZM2.73529 7.24777C2.70731 7.20444 2.67942 7.16024 2.64906 7.1121L1.38038 7.91238C1.41003 7.9594 1.44215 8.01033 1.47516 8.06145L2.73529 7.24777ZM2.95403 7.57359C2.8738 7.45626 2.80273 7.35222 2.73531 7.2478L1.47514 8.06141C1.55511 8.18528 1.6375 8.30571 1.71577 8.42019L2.95403 7.57359ZM2.9709 7.5994L2.9709 7.59939L1.6989 8.39439L1.6989 8.39439L2.9709 7.5994ZM3.06129 7.73102C3.0246 7.67681 2.98851 7.62403 2.95403 7.5736L1.71577 8.42019C1.75054 8.47105 1.78466 8.52095 1.81905 8.57176L3.06129 7.73102ZM2.46349 8.91675C2.50983 8.90586 2.56159 8.8937 2.61709 8.88022L2.26324 7.42256C2.21384 7.43455 2.16718 7.44552 2.1203 7.45654L2.46349 8.91675ZM18.7352 8.34961C18.208 7.73912 17.5673 7.51528 16.9523 7.41443L16.7096 8.89467C17.1237 8.96257 17.3835 9.07939 17.5999 9.32999L18.7352 8.34961ZM17.4133 7.33131C17.5417 7.70233 17.5135 8.10233 17.4248 8.73585L18.9103 8.94375C18.9958 8.33294 19.0915 7.59428 18.8308 6.84083L17.4133 7.33131ZM18.2089 7.48399C18.2397 7.44827 18.2318 7.46618 18.1849 7.49482C18.1338 7.52595 17.986 7.59842 17.7826 7.55961C17.5789 7.52076 17.468 7.39875 17.4318 7.35063C17.3986 7.30646 17.3979 7.28675 17.4133 7.33144L18.8308 6.8407C18.7906 6.72453 18.7297 6.58072 18.6305 6.44892C18.5284 6.31317 18.3458 6.14001 18.0636 6.08618C17.7817 6.03238 17.5484 6.12604 17.4038 6.21424C17.2633 6.29995 17.1537 6.41081 17.0736 6.50363L18.2089 7.48399ZM17.847 8.00171C17.9852 7.78395 18.089 7.62292 18.2092 7.48362L17.0733 6.50399C16.8696 6.74012 16.7091 6.99538 16.5807 7.19766L17.847 8.00171ZM17.4146 8.62558C17.5889 8.40953 17.7311 8.18409 17.847 8.00171L16.5807 7.19766C16.4579 7.39104 16.3596 7.54437 16.2473 7.68352L17.4146 8.62558ZM7.00807 2.79039C7.17571 2.25548 7.33519 1.91851 7.5958 1.6751L6.57192 0.578896C6.0136 1.10038 5.76049 1.75541 5.57671 2.34181L7.00807 2.79039ZM7.76558 1.82856C7.26259 1.7164 6.70363 1.66506 6.08256 1.84605L6.50222 3.28615C6.79577 3.2006 7.07926 3.21236 7.43912 3.2926L7.76558 1.82856ZM6.82266 2.26149C6.83333 2.38235 6.84417 2.50505 6.85545 2.62873L8.34925 2.49243C8.33819 2.37127 8.32755 2.25072 8.31684 2.12952L6.82266 2.26149ZM6.73591 1.34731C6.76834 1.64676 6.79495 1.94783 6.82266 2.26149L8.31684 2.12952C8.28936 1.81836 8.26148 1.50249 8.22719 1.18583L6.73591 1.34731ZM7.1191 1.72599C7.03228 1.6998 6.94836 1.6511 6.87893 1.58238C6.81302 1.51714 6.77726 1.45096 6.75876 1.4076C6.74096 1.36588 6.73511 1.33581 6.73403 1.33019C6.73302 1.32487 6.73353 1.32575 6.73609 1.34897L8.22701 1.18418C8.22267 1.14492 8.20831 0.982754 8.13845 0.818999C8.05369 0.620316 7.87383 0.386869 7.55221 0.289873L7.1191 1.72599ZM7.62233 1.6499C7.64126 1.63177 7.64136 1.632 7.63819 1.63468C7.63392 1.63831 7.61055 1.65802 7.57161 1.67964C7.53085 1.70228 7.46567 1.73115 7.37966 1.74415C7.28989 1.75771 7.19991 1.75048 7.11813 1.72569L7.55318 0.290167C7.26756 0.203607 7.01523 0.272839 6.84335 0.36829C6.70534 0.444935 6.60151 0.550599 6.58474 0.566662L7.62233 1.6499ZM7.59681 1.67416C7.60675 1.66484 7.61623 1.65574 7.62232 1.64991L6.58475 0.566653C6.5776 0.573505 6.57397 0.576966 6.5709 0.579844L7.59681 1.67416Z" fill="#367560"/>
</svg>
